<!DOCTYPE svg PUBLIC "-//W3C//DTD SVG 1.1//EN" "https://www.w3.org/Graphics/SVG/1.1/DTD/svg11.dtd"><svg xmlns="http://www.w3.org/2000/svg" id="sfn-svg" class="sfn-workflow-graph" width="293" height="565">
    
    
<g transform="translate(25.6171875,19.61328125)"><g class="nodes"><g class="node-container" transform="translate(100.943359375,18.25)"><g class="node anchor"><circle class="shape" x="-15.86328125" y="-8.25" r="25.86328125"/><text class="label"><tspan xml:space="preserve" text-anchor="middle" alignment-baseline="central">Start</tspan></text></g></g><g class="node-container" transform="translate(100.943359375,510.35400009155273)"><g class="node anchor"><circle class="shape" x="-12.17578125" y="-8.25" r="22.17578125"/><text class="label"><tspan xml:space="preserve" text-anchor="middle" alignment-baseline="central">End</tspan></text></g></g><g class="node-container" transform="translate(100.943359375,79.75)"><g class="node state Task NotYetStarted"><rect class="shape" rx="5" ry="5" x="-48.9921875" y="-18.25" width="97.984375" height="36.5"/><text class="label"><tspan xml:space="preserve" text-anchor="middle" alignment-baseline="central">CreateOrder</tspan></text></g></g><g class="node-container" transform="translate(100.943359375,141.25)"><g class="node state Task NotYetStarted"><rect class="shape" rx="5" ry="5" x="-49.29296875" y="-18.25" width="98.5859375" height="36.5"/><text class="label"><tspan xml:space="preserve" text-anchor="middle" alignment-baseline="central">ReserveItem</tspan></text></g></g><g class="node-container" transform="translate(152.5859375,202.77600002288818)"><g class="node state Task NotYetStarted"><rect class="shape" rx="5" ry="5" x="-61.703125" y="-18.276000022888184" width="123.40625" height="36.55200004577637"/><text class="label"><tspan xml:space="preserve" text-anchor="middle" alignment-baseline="central">ProcessPayment</tspan></text></g></g><g class="node-container" transform="translate(49.30078125,448.85400009155273)"><g class="node state Task NotYetStarted"><rect class="shape" rx="5" ry="5" x="-49.30078125" y="-18.25" width="98.6015625" height="36.5"/><text class="label"><tspan xml:space="preserve" text-anchor="middle" alignment-baseline="central">CancelOrder</tspan></text></g></g><g class="node-container" transform="translate(200.50390625,264.30200004577637)"><g class="node state Task NotYetStarted"><rect class="shape" rx="5" ry="5" x="-54.05859375" y="-18.25" width="108.1171875" height="36.5"/><text class="label"><tspan xml:space="preserve" text-anchor="middle" alignment-baseline="central">ConfirmOrder</tspan></text></g></g><g class="node-container" transform="translate(100.943359375,387.35400009155273)"><g class="node state Task NotYetStarted"><rect class="shape" rx="5" ry="5" x="-68.28515625" y="-18.25" width="136.5703125" height="36.5"/><text class="label"><tspan xml:space="preserve" text-anchor="middle" alignment-baseline="central">CancelReservation</tspan></text></g></g><g class="node-container" transform="translate(148.861328125,325.82800006866455)"><g class="node state Pass NotYetStarted"><rect class="shape" rx="5" ry="5" x="-60.8359375" y="-18.276000022888184" width="121.671875" height="36.55200004577637"/><text class="label"><tspan xml:space="preserve" text-anchor="middle" alignment-baseline="central">RefundPayment</tspan></text></g></g></g><g class="edges"><g class="edge"><path class="path" marker-end="url(#arrowhead622)" d="M100.943359375,98L100.94335937499997,100.08333333333331C100.94335937499999,102.16666666666666,100.94335937499999,106.33333333333331,100.94335937499997,110.49999999999999C100.94335937499999,114.66666666666666,100.94335937499999,118.83333333333333,100.94335937499997,120.91666666666666L100.943359375,123" style="fill: none;"/><defs><marker id="arrowhead622" viewBox="0 0 10 10" refX="9" refY="5" markerUnits="strokeWidth" markerWidth="8" markerHeight="6" orient="auto"><path d="M 0 0 L 10 5 L 0 10 z"/></marker></defs></g><g class="edge"><path class="path" marker-end="url(#arrowhead623)" d="M100.943359375,44.11328125L100.94335937499997,44.92773437499999C100.94335937499999,45.7421875,100.94335937499999,47.37109375,100.94335937499997,50.26888020833333C100.94335937499999,53.166666666666664,100.94335937499999,57.33333333333333,100.94335937499997,59.416666666666664L100.943359375,61.5" style="fill: none;"/><defs><marker id="arrowhead623" viewBox="0 0 10 10" refX="9" refY="5" markerUnits="strokeWidth" markerWidth="8" markerHeight="6" orient="auto"><path d="M 0 0 L 10 5 L 0 10 z"/></marker></defs></g><g class="edge"><path class="path" marker-end="url(#arrowhead624)" d="M131.59301956300814,159.5L135.09183921917344,161.58333333333331C138.59065887533876,163.66666666666666,145.58829818766938,167.83333333333331,149.08711784383468,172C152.5859375,176.16666666666666,152.5859375,180.33333333333331,152.5859375,182.41666666666666L152.5859375,184.5" style="fill: none;"/><defs><marker id="arrowhead624" viewBox="0 0 10 10" refX="9" refY="5" markerUnits="strokeWidth" markerWidth="8" markerHeight="6" orient="auto"><path d="M 0 0 L 10 5 L 0 10 z"/></marker></defs></g><g class="edge"><path class="path" marker-end="url(#arrowhead625)" d="M51.650390625,154.48107151990453L40.7724609375,157.40089293325377C29.89453125,160.320714346603,8.138671875,166.1603571733015,-2.7392578125,174.20951192379877C-13.6171875,182.25866667429605,-13.6171875,192.5173333485921,-13.6171875,202.77600002288818C-13.6171875,213.03466669718424,-13.6171875,223.2933333714803,-13.6171875,233.5476667086283C-13.6171875,243.80200004577634,-13.6171875,254.05200004577634,-13.6171875,264.3020000457763C-13.6171875,274.55200004577637,-13.6171875,284.80200004577637,-13.6171875,295.0563333829244C-13.6171875,305.3106667200724,-13.6171875,315.56933339436847,-13.6171875,325.82800006866455C-13.6171875,336.0866667429606,-13.6171875,346.34533341725665,-13.6171875,356.5996667544047C-13.6171875,366.85400009155273,-13.6171875,377.10400009155273,-13.6171875,387.35400009155273C-13.6171875,397.60400009155273,-13.6171875,407.85400009155273,-9.354452489837398,415.06233342488605C-5.091717479674797,422.27066675821936,3.4337525406504072,426.43733342488605,7.696487550813009,428.52066675821936L11.959222560975611,430.60400009155273" style="fill: none;"/><defs><marker id="arrowhead625" viewBox="0 0 10 10" refX="9" refY="5" markerUnits="strokeWidth" markerWidth="8" markerHeight="6" orient="auto"><path d="M 0 0 L 10 5 L 0 10 z"/></marker></defs></g><g class="edge"><path class="path" marker-end="url(#arrowhead626)" d="M49.30078125,467.10400009155273L49.30078125,469.187333424886C49.30078125,471.27066675821936,49.30078125,475.43733342488605,54.732242739772914,480.75477022234645C60.163704229545836,486.0722070198069,71.02662720909167,492.54041394806114,76.45808869886459,495.77451741218823L81.88955018863751,499.0086208763154" style="fill: none;"/><defs><marker id="arrowhead626" viewBox="0 0 10 10" refX="9" refY="5" markerUnits="strokeWidth" markerWidth="8" markerHeight="6" orient="auto"><path d="M 0 0 L 10 5 L 0 10 z"/></marker></defs></g><g class="edge"><path class="path" marker-end="url(#arrowhead627)" d="M181.04151318626393,221.05200004577637L184.28524536355326,223.13533337910968C187.52897754084262,225.21866671244302,194.01644189542128,229.38533337910968,197.26017407271064,233.55200004577634C200.50390624999997,237.718666712443,200.50390624999997,241.88533337910968,200.50390624999994,243.96866671244302L200.50390625,246.05200004577637" style="fill: none;"/><defs><marker id="arrowhead627" viewBox="0 0 10 10" refX="9" refY="5" markerUnits="strokeWidth" markerWidth="8" markerHeight="6" orient="auto"><path d="M 0 0 L 10 5 L 0 10 z"/></marker></defs></g><g class="edge"><path class="path" marker-end="url(#arrowhead628)" d="M93.46296649619694,221.05200004577637L86.72337051766412,223.13533337910968C79.98377453913129,225.21866671244302,66.50458258206564,229.38533337910968,59.76498660353282,236.593666712443C53.025390625,243.80200004577634,53.025390625,254.05200004577634,53.02539062499999,264.3020000457763C53.025390625,274.55200004577637,53.025390625,284.80200004577637,53.02539062499999,295.0563333829244C53.025390625,305.3106667200724,53.025390625,315.56933339436847,53.02539062499999,325.82800006866455C53.025390625,336.0866667429606,53.025390625,346.34533341725665,56.27186547256097,353.55800008773804C59.51834032012195,360.77066675821936,66.0112900152439,364.93733342488605,69.25776486280488,367.02066675821936L72.50423971036585,369.10400009155273" style="fill: none;"/><defs><marker id="arrowhead628" viewBox="0 0 10 10" refX="9" refY="5" markerUnits="strokeWidth" markerWidth="8" markerHeight="6" orient="auto"><path d="M 0 0 L 10 5 L 0 10 z"/></marker></defs></g><g class="edge"><path class="path" marker-end="url(#arrowhead629)" d="M169.85424606199186,282.55200004577637L166.35542640582653,284.6353333791097C162.85660674966124,286.718666712443,155.8589674373306,290.8853333791097,152.3601477811653,295.05200004577637C148.861328125,299.218666712443,148.861328125,303.3853333791097,148.86132812499997,305.46866671244305L148.861328125,307.55200004577637" style="fill: none;"/><defs><marker id="arrowhead629" viewBox="0 0 10 10" refX="9" refY="5" markerUnits="strokeWidth" markerWidth="8" markerHeight="6" orient="auto"><path d="M 0 0 L 10 5 L 0 10 z"/></marker></defs></g><g class="edge"><path class="path" marker-end="url(#arrowhead630)" d="M228.94302591463415,282.55200004577637L232.1895007621951,284.6353333791097C235.43597560975607,286.718666712443,241.92892530487802,290.8853333791097,245.175400152439,298.09800004959106C248.42187499999997,305.3106667200724,248.42187499999997,315.56933339436847,248.42187499999994,325.82800006866455C248.42187499999997,336.0866667429606,248.42187499999997,346.34533341725665,248.42187499999994,356.5996667544047C248.42187499999997,366.85400009155273,248.42187499999997,377.10400009155273,248.42187499999994,387.35400009155273C248.42187499999997,397.60400009155273,248.42187499999997,407.85400009155273,248.42187499999994,418.10400009155273C248.42187499999997,428.35400009155273,248.42187499999997,438.60400009155273,248.42187499999994,448.85400009155273C248.42187499999997,459.10400009155273,248.42187499999997,469.35400009155273,227.4602743084306,478.84959752084023C206.49867361686125,488.3451949501277,164.57547223372254,497.0863898087026,143.61387154215316,501.4569872379901L122.65227085058383,505.82758466727756" style="fill: none;"/><defs><marker id="arrowhead630" viewBox="0 0 10 10" refX="9" refY="5" markerUnits="strokeWidth" markerWidth="8" markerHeight="6" orient="auto"><path d="M 0 0 L 10 5 L 0 10 z"/></marker></defs></g><g class="edge"><path class="path" marker-end="url(#arrowhead631)" d="M100.943359375,405.60400009155273L100.94335937499997,407.687333424886C100.94335937499999,409.77066675821936,100.94335937499999,413.93733342488605,97.44453971883468,418.1040000915527C93.94572006266937,422.27066675821936,86.94808075033875,426.43733342488605,83.44926109417344,428.52066675821936L79.95044143800813,430.60400009155273" style="fill: none;"/><defs><marker id="arrowhead631" viewBox="0 0 10 10" refX="9" refY="5" markerUnits="strokeWidth" markerWidth="8" markerHeight="6" orient="auto"><path d="M 0 0 L 10 5 L 0 10 z"/></marker></defs></g><g class="edge"><path class="path" marker-end="url(#arrowhead632)" d="M148.861328125,344.10400009155273L148.86132812499997,346.18733342488605C148.861328125,348.27066675821936,148.861328125,352.43733342488605,145.614853277439,356.60400009155273C142.36837842987802,360.77066675821936,135.8754287347561,364.93733342488605,132.6289538871951,367.02066675821936L129.38247903963415,369.10400009155273" style="fill: none;"/><defs><marker id="arrowhead632" viewBox="0 0 10 10" refX="9" refY="5" markerUnits="strokeWidth" markerWidth="8" markerHeight="6" orient="auto"><path d="M 0 0 L 10 5 L 0 10 z"/></marker></defs></g></g></g><style xmlns="http://www.w3.org/1999/xhtml">.node &gt; .shape {stroke: #555555;stroke-width: 0.6px;fill: #FFFFFF;} path {stroke: #555;background-color: #555;stroke-width: 1px;} .node.state.NotYetStarted &gt; .shape,.node.state.Container &gt; .shape {stroke-dasharray: 5 2;} .node.state.Failed &gt; .shape,rect.legend.Failed {fill: #DE322F;} .node.state.CaughtError &gt; .shape,rect.legend.CaughtError {fill: #FFA500;} .node.state.Succeeded &gt; .shape,rect.legend.Succeeded {fill: #2BD62E;} .node.state.InProgress &gt; .shape,rect.legend.InProgress {fill: #53c9ed;} .node.state.Cancelled &gt; .shape,rect.legend.Cancelled {fill: #dddddd;} .node.anchor &gt; .shape {fill: #FFDA75;} .node.state.hovered:not(.selected):not(.NotYetStarted) &gt; .shape,.node.selected &gt; .shape {stroke: #555555;stroke-width: 2px;} .node.state.Container.Failed &gt; .shape {fill: #EE9592;} .node.state.Container.CaughtError &gt; .shape {fill: #FFD27F;} .node.state.Container.Succeeded &gt; .shape {fill: #91EA9A;} .node.state.Container.InProgress &gt; .shape {fill :#A9E4F7;} .node.state.Container.Cancelled &gt; .shape {fill: #EEEEEE;} marker {fill: #555555;} .node.anchor,.node.state.NotYetStarted {cursor: default;} .node.state {cursor: pointer;} tspan .label {font-weight: normal;font-size: 12px;text-shadow: none;} </style></svg>