<!DOCTYPE svg PUBLIC "-//W3C//DTD SVG 1.1//EN" "https://www.w3.org/Graphics/SVG/1.1/DTD/svg11.dtd"><svg xmlns="http://www.w3.org/2000/svg" id="sfn-svg" class="sfn-workflow-graph" width="521" height="688">
    
    
<g transform="translate(12,19.61328125)"><g class="nodes"><g class="node-container" transform="translate(288.31640625,18.25)"><g class="node anchor"><circle class="shape" x="-15.86328125" y="-8.25" r="25.86328125"/><text class="label"><tspan xml:space="preserve" text-anchor="middle" alignment-baseline="central">Start</tspan></text></g></g><g class="node-container" transform="translate(299.25390625,633.4060001373291)"><g class="node anchor"><circle class="shape" x="-12.17578125" y="-8.25" r="22.17578125"/><text class="label"><tspan xml:space="preserve" text-anchor="middle" alignment-baseline="central">End</tspan></text></g></g><g class="node-container" transform="translate(288.31640625,79.75)"><g class="node state Choice NotYetStarted"><rect class="shape" rx="5" ry="5" x="-59.296875" y="-18.25" width="118.59375" height="36.5"/><text class="label"><tspan xml:space="preserve" text-anchor="middle" alignment-baseline="central">IsValidRequest?</tspan></text></g></g><g class="node-container" transform="translate(214.060546875,141.25)"><g class="node state Task NotYetStarted"><rect class="shape" rx="5" ry="5" x="-48.9921875" y="-18.25" width="97.984375" height="36.5"/><text class="label"><tspan xml:space="preserve" text-anchor="middle" alignment-baseline="central">CreateOrder</tspan></text></g></g><g class="node-container" transform="translate(451.427734375,571.8800001144409)"><g class="node state Pass NotYetStarted"><rect class="shape" rx="5" ry="5" x="-44.70703125" y="-18.276000022888184" width="89.4140625" height="36.55200004577637"/><text class="label"><tspan xml:space="preserve" text-anchor="middle" alignment-baseline="central">DoNothing</tspan></text></g></g><g class="node-container" transform="translate(214.060546875,202.75)"><g class="node state Task NotYetStarted"><rect class="shape" rx="5" ry="5" x="-49.29296875" y="-18.25" width="98.5859375" height="36.5"/><text class="label"><tspan xml:space="preserve" text-anchor="middle" alignment-baseline="central">ReserveItem</tspan></text></g></g><g class="node-container" transform="translate(162.41796875,264.2760000228882)"><g class="node state Task NotYetStarted"><rect class="shape" rx="5" ry="5" x="-61.703125" y="-18.276000022888184" width="123.40625" height="36.55200004577637"/><text class="label"><tspan xml:space="preserve" text-anchor="middle" alignment-baseline="central">ProcessPayment</tspan></text></g></g><g class="node-container" transform="translate(299.25390625,510.35400009155273)"><g class="node state Task NotYetStarted"><rect class="shape" rx="5" ry="5" x="-49.30078125" y="-18.25" width="98.6015625" height="36.5"/><text class="label"><tspan xml:space="preserve" text-anchor="middle" alignment-baseline="central">CancelOrder</tspan></text></g></g><g class="node-container" transform="translate(299.25390625,571.8800001144409)"><g class="node state Task NotYetStarted"><rect class="shape" rx="5" ry="5" x="-63.8046875" y="-18.25" width="127.609375" height="36.5"/><text class="label"><tspan xml:space="preserve" text-anchor="middle" alignment-baseline="central">EmitFailureEvent</tspan></text></g></g><g class="node-container" transform="translate(114.5,325.80200004577637)"><g class="node state Task NotYetStarted"><rect class="shape" rx="5" ry="5" x="-54.05859375" y="-18.25" width="108.1171875" height="36.5"/><text class="label"><tspan xml:space="preserve" text-anchor="middle" alignment-baseline="central">ConfirmOrder</tspan></text></g></g><g class="node-container" transform="translate(247.611328125,448.85400009155273)"><g class="node state Task NotYetStarted"><rect class="shape" rx="5" ry="5" x="-68.28515625" y="-18.25" width="136.5703125" height="36.5"/><text class="label"><tspan xml:space="preserve" text-anchor="middle" alignment-baseline="central">CancelReservation</tspan></text></g></g><g class="node-container" transform="translate(66.58203125,571.8800001144409)"><g class="node state Task NotYetStarted"><rect class="shape" rx="5" ry="5" x="-66.58203125" y="-18.25" width="133.1640625" height="36.5"/><text class="label"><tspan xml:space="preserve" text-anchor="middle" alignment-baseline="central">EmitSuccessEvent</tspan></text></g></g><g class="node-container" transform="translate(199.693359375,387.32800006866455)"><g class="node state Pass NotYetStarted"><rect class="shape" rx="5" ry="5" x="-60.8359375" y="-18.276000022888184" width="121.671875" height="36.55200004577637"/><text class="label"><tspan xml:space="preserve" text-anchor="middle" alignment-baseline="central">RefundPayment</tspan></text></g></g></g><g class="edges"><g class="edge"><path class="path" marker-end="url(#arrowhead345)" d="M244.2458555640244,98L239.2149707825203,100.08333333333331C234.18408600101625,102.16666666666666,224.1223164380081,106.33333333333331,219.09143165650406,110.49999999999999C214.060546875,114.66666666666666,214.060546875,118.83333333333333,214.060546875,120.91666666666666L214.060546875,123" style="fill: none;"/><defs><marker id="arrowhead345" viewBox="0 0 10 10" refX="9" refY="5" markerUnits="strokeWidth" markerWidth="8" markerHeight="6" orient="auto"><path d="M 0 0 L 10 5 L 0 10 z"/></marker></defs></g><g class="edge"><path class="path" marker-end="url(#arrowhead346)" d="M347.61328125,90.92873863949325L364.91569010416663,94.19061553291104C382.2180989583333,97.45249242632883,416.82291666666663,103.9762462131644,434.12532552083326,112.36312310658221C451.42773437499994,120.74999999999999,451.42773437499994,131,451.4277343749999,141.24999999999997C451.42773437499994,151.5,451.42773437499994,161.75,451.4277343749999,171.99999999999997C451.42773437499994,182.25,451.42773437499994,192.5,451.4277343749999,202.74999999999997C451.42773437499994,213,451.42773437499994,223.25,451.4277343749999,233.504333337148C451.42773437499994,243.75866667429605,451.42773437499994,254.0173333485921,451.4277343749999,264.2760000228882C451.42773437499994,274.5346666971842,451.42773437499994,284.7933333714803,451.4277343749999,295.0476667086283C451.42773437499994,305.30200004577637,451.42773437499994,315.55200004577637,451.4277343749999,325.8020000457763C451.42773437499994,336.05200004577637,451.42773437499994,346.30200004577637,451.4277343749999,356.5563333829243C451.42773437499994,366.8106667200724,451.42773437499994,377.0693333943684,451.4277343749999,387.3280000686645C451.42773437499994,397.5866667429606,451.42773437499994,407.84533341725665,451.4277343749999,418.09966675440467C451.42773437499994,428.35400009155273,451.42773437499994,438.60400009155273,451.4277343749999,448.85400009155273C451.42773437499994,459.10400009155273,451.42773437499994,469.35400009155273,451.4277343749999,479.60400009155273C451.42773437499994,489.85400009155273,451.42773437499994,500.10400009155273,451.4277343749999,510.35400009155273C451.42773437499994,520.6040000915527,451.42773437499994,530.8540000915527,451.4277343749999,538.0623334248861C451.42773437499994,545.2706667582194,451.42773437499994,549.437333424886,451.4277343749999,551.5206667582194L451.427734375,553.6040000915527" style="fill: none;"/><defs><marker id="arrowhead346" viewBox="0 0 10 10" refX="9" refY="5" markerUnits="strokeWidth" markerWidth="8" markerHeight="6" orient="auto"><path d="M 0 0 L 10 5 L 0 10 z"/></marker></defs></g><g class="edge"><path class="path" marker-end="url(#arrowhead347)" d="M288.31640625,44.11328125L288.31640625,44.92773437499999C288.31640625,45.7421875,288.31640625,47.37109375,288.31640625,50.26888020833333C288.31640625,53.166666666666664,288.31640625,57.33333333333333,288.31640625,59.416666666666664L288.31640625,61.5" style="fill: none;"/><defs><marker id="arrowhead347" viewBox="0 0 10 10" refX="9" refY="5" markerUnits="strokeWidth" markerWidth="8" markerHeight="6" orient="auto"><path d="M 0 0 L 10 5 L 0 10 z"/></marker></defs></g><g class="edge"><path class="path" marker-end="url(#arrowhead348)" d="M451.427734375,590.1560001373291L451.4277343749999,592.2393334706624C451.42773437499994,594.3226668039957,451.42773437499994,598.4893334706624,429.6881697276889,604.9656141402203C407.9486050803779,611.4418948097782,364.4694757857559,620.2277894822273,342.7299111384449,624.6207368184519L320.9903464911339,629.0136841546765" style="fill: none;"/><defs><marker id="arrowhead348" viewBox="0 0 10 10" refX="9" refY="5" markerUnits="strokeWidth" markerWidth="8" markerHeight="6" orient="auto"><path d="M 0 0 L 10 5 L 0 10 z"/></marker></defs></g><g class="edge"><path class="path" marker-end="url(#arrowhead349)" d="M214.060546875,159.5L214.060546875,161.58333333333331C214.060546875,163.66666666666666,214.060546875,167.83333333333331,214.060546875,172C214.060546875,176.16666666666666,214.060546875,180.33333333333331,214.060546875,182.41666666666666L214.060546875,184.5" style="fill: none;"/><defs><marker id="arrowhead349" viewBox="0 0 10 10" refX="9" refY="5" markerUnits="strokeWidth" markerWidth="8" markerHeight="6" orient="auto"><path d="M 0 0 L 10 5 L 0 10 z"/></marker></defs></g><g class="edge"><path class="path" marker-end="url(#arrowhead350)" d="M183.41088668699186,221L179.91206703082656,223.0833333333333C176.41324737466124,225.16666666666663,169.41560806233062,229.33333333333331,165.91678840616532,233.5C162.41796875,237.66666666666666,162.41796875,241.83333333333331,162.41796875,243.91666666666666L162.41796875,246" style="fill: none;"/><defs><marker id="arrowhead350" viewBox="0 0 10 10" refX="9" refY="5" markerUnits="strokeWidth" markerWidth="8" markerHeight="6" orient="auto"><path d="M 0 0 L 10 5 L 0 10 z"/></marker></defs></g><g class="edge"><path class="path" marker-end="url(#arrowhead351)" d="M263.353515625,212.98391531391346L279.8232421875,216.40326276159453C296.29296875,219.82261020927564,329.232421875,226.6613051046378,345.7021484375,235.20998588946694C362.171875,243.75866667429605,362.171875,254.0173333485921,362.171875,264.2760000228882C362.171875,274.5346666971842,362.171875,284.7933333714803,362.171875,295.0476667086283C362.171875,305.30200004577637,362.171875,315.55200004577637,362.171875,325.8020000457763C362.171875,336.05200004577637,362.171875,346.30200004577637,362.171875,356.5563333829243C362.171875,366.8106667200724,362.171875,377.0693333943684,362.171875,387.3280000686645C362.171875,397.5866667429606,362.171875,407.84533341725665,362.171875,418.09966675440467C362.171875,428.35400009155273,362.171875,438.60400009155273,362.171875,448.85400009155273C362.171875,459.10400009155273,362.171875,469.35400009155273,357.9091399898374,476.56233342488605C353.6464049796748,483.77066675821936,345.1209349593496,487.93733342488605,340.858199949187,490.02066675821936L336.5954649390244,492.10400009155273" style="fill: none;"/><defs><marker id="arrowhead351" viewBox="0 0 10 10" refX="9" refY="5" markerUnits="strokeWidth" markerWidth="8" markerHeight="6" orient="auto"><path d="M 0 0 L 10 5 L 0 10 z"/></marker></defs></g><g class="edge"><path class="path" marker-end="url(#arrowhead352)" d="M299.25390625,528.6040000915527L299.25390625,530.687333424886C299.25390625,532.7706667582194,299.25390625,536.937333424886,299.25390625,541.1083334287007C299.25390625,545.2793334325154,299.25390625,549.4546667734782,299.25390625,551.5423334439595L299.25390625,553.6300001144409" style="fill: none;"/><defs><marker id="arrowhead352" viewBox="0 0 10 10" refX="9" refY="5" markerUnits="strokeWidth" markerWidth="8" markerHeight="6" orient="auto"><path d="M 0 0 L 10 5 L 0 10 z"/></marker></defs></g><g class="edge"><path class="path" marker-end="url(#arrowhead353)" d="M133.96239306373607,282.55200004577637L130.7186608864467,284.6353333791097C127.47492870915738,286.718666712443,120.98746435457869,290.8853333791097,117.74373217728933,295.05200004577637C114.5,299.218666712443,114.5,303.3853333791097,114.49999999999999,305.46866671244305L114.5,307.55200004577637" style="fill: none;"/><defs><marker id="arrowhead353" viewBox="0 0 10 10" refX="9" refY="5" markerUnits="strokeWidth" markerWidth="8" markerHeight="6" orient="auto"><path d="M 0 0 L 10 5 L 0 10 z"/></marker></defs></g><g class="edge"><path class="path" marker-end="url(#arrowhead354)" d="M224.12109375,278.54206890794217L236.0224609375,281.29372409758116C247.923828125,284.0453792872202,271.7265625,289.54868966649826,283.6279296875,297.4253448561373C295.529296875,305.30200004577637,295.529296875,315.55200004577637,295.529296875,325.8020000457763C295.529296875,336.05200004577637,295.529296875,346.30200004577637,295.529296875,356.5563333829243C295.529296875,366.8106667200724,295.529296875,377.0693333943684,295.529296875,387.3280000686645C295.529296875,397.5866667429606,295.529296875,407.84533341725665,292.282822027439,415.058000087738C289.036347179878,422.27066675821936,282.54339748475604,426.43733342488605,279.2969226371951,428.52066675821936L276.0504477896341,430.60400009155273" style="fill: none;"/><defs><marker id="arrowhead354" viewBox="0 0 10 10" refX="9" refY="5" markerUnits="strokeWidth" markerWidth="8" markerHeight="6" orient="auto"><path d="M 0 0 L 10 5 L 0 10 z"/></marker></defs></g><g class="edge"><path class="path" marker-end="url(#arrowhead355)" d="M86.06088033536585,344.05200004577637L82.81440548780486,346.1353333791097C79.5679306402439,348.218666712443,73.07498094512195,352.3853333791097,69.82850609756096,359.59800004959106C66.58203125,366.8106667200724,66.58203125,377.0693333943684,66.58203124999999,387.3280000686645C66.58203125,397.5866667429606,66.58203125,407.84533341725665,66.58203124999999,418.09966675440467C66.58203125,428.35400009155273,66.58203125,438.60400009155273,66.58203124999999,448.85400009155273C66.58203125,459.10400009155273,66.58203125,469.35400009155273,66.58203124999999,479.60400009155273C66.58203125,489.85400009155273,66.58203125,500.10400009155273,66.58203124999999,510.35400009155273C66.58203125,520.6040000915527,66.58203125,530.8540000915527,66.58203124999999,538.0666667620341C66.58203125,545.2793334325154,66.58203125,549.4546667734782,66.58203124999999,551.5423334439595L66.58203125,553.6300001144409" style="fill: none;"/><defs><marker id="arrowhead355" viewBox="0 0 10 10" refX="9" refY="5" markerUnits="strokeWidth" markerWidth="8" markerHeight="6" orient="auto"><path d="M 0 0 L 10 5 L 0 10 z"/></marker></defs></g><g class="edge"><path class="path" marker-end="url(#arrowhead356)" d="M165.0619124745935,344.05200004577637L170.8338202913279,346.1353333791097C176.60572810806232,348.218666712443,188.14954374153115,352.3853333791097,193.92145155826557,356.55200004577637C199.693359375,360.718666712443,199.693359375,364.8853333791097,199.693359375,366.96866671244305L199.693359375,369.05200004577637" style="fill: none;"/><defs><marker id="arrowhead356" viewBox="0 0 10 10" refX="9" refY="5" markerUnits="strokeWidth" markerWidth="8" markerHeight="6" orient="auto"><path d="M 0 0 L 10 5 L 0 10 z"/></marker></defs></g><g class="edge"><path class="path" marker-end="url(#arrowhead357)" d="M247.611328125,467.10400009155273L247.611328125,469.187333424886C247.611328125,471.27066675821936,247.611328125,475.43733342488605,251.11014778116532,479.6040000915527C254.60896743733062,483.77066675821936,261.60660674966124,487.93733342488605,265.10542640582656,490.02066675821936L268.6042460619919,492.10400009155273" style="fill: none;"/><defs><marker id="arrowhead357" viewBox="0 0 10 10" refX="9" refY="5" markerUnits="strokeWidth" markerWidth="8" markerHeight="6" orient="auto"><path d="M 0 0 L 10 5 L 0 10 z"/></marker></defs></g><g class="edge"><path class="path" marker-end="url(#arrowhead358)" d="M199.693359375,405.60400009155273L199.693359375,407.687333424886C199.693359375,409.77066675821936,199.693359375,413.93733342488605,202.939834222561,418.1040000915527C206.18630907012195,422.27066675821936,212.6792587652439,426.43733342488605,215.9257336128049,428.52066675821936L219.17220846036585,430.60400009155273" style="fill: none;"/><defs><marker id="arrowhead358" viewBox="0 0 10 10" refX="9" refY="5" markerUnits="strokeWidth" markerWidth="8" markerHeight="6" orient="auto"><path d="M 0 0 L 10 5 L 0 10 z"/></marker></defs></g><g class="edge"><path class="path" marker-end="url(#arrowhead359)" d="M66.58203125,590.1300001144409L66.58203124999999,592.2176667849222C66.58203125,594.3053334554036,66.58203125,598.4806667963663,101.69657429420704,605.2090843036618C136.81111733841408,611.9375018109573,207.04020342682819,621.2190034845856,242.15474647103525,625.8597543213998L277.2692895152423,630.500505158214" style="fill: none;"/><defs><marker id="arrowhead359" viewBox="0 0 10 10" refX="9" refY="5" markerUnits="strokeWidth" markerWidth="8" markerHeight="6" orient="auto"><path d="M 0 0 L 10 5 L 0 10 z"/></marker></defs></g><g class="edge"><path class="path" marker-end="url(#arrowhead360)" d="M299.25390625,590.1300001144409L299.25390625,592.2176667849222C299.25390625,594.3053334554036,299.25390625,598.4806667963663,299.25390625,601.997369925181C299.25390625,605.5140730539957,299.25390625,608.3721459706624,299.25390625,609.8011824289957L299.25390625,611.2302188873291" style="fill: none;"/><defs><marker id="arrowhead360" viewBox="0 0 10 10" refX="9" refY="5" markerUnits="strokeWidth" markerWidth="8" markerHeight="6" orient="auto"><path d="M 0 0 L 10 5 L 0 10 z"/></marker></defs></g></g></g><style xmlns="http://www.w3.org/1999/xhtml">.node &gt; .shape {stroke: #555555;stroke-width: 0.6px;fill: #FFFFFF;} path {stroke: #555;background-color: #555;stroke-width: 1px;} .node.state.NotYetStarted &gt; .shape,.node.state.Container &gt; .shape {stroke-dasharray: 5 2;} .node.state.Failed &gt; .shape,rect.legend.Failed {fill: #DE322F;} .node.state.CaughtError &gt; .shape,rect.legend.CaughtError {fill: #FFA500;} .node.state.Succeeded &gt; .shape,rect.legend.Succeeded {fill: #2BD62E;} .node.state.InProgress &gt; .shape,rect.legend.InProgress {fill: #53c9ed;} .node.state.Cancelled &gt; .shape,rect.legend.Cancelled {fill: #dddddd;} .node.anchor &gt; .shape {fill: #FFDA75;} .node.state.hovered:not(.selected):not(.NotYetStarted) &gt; .shape,.node.selected &gt; .shape {stroke: #555555;stroke-width: 2px;} .node.state.Container.Failed &gt; .shape {fill: #EE9592;} .node.state.Container.CaughtError &gt; .shape {fill: #FFD27F;} .node.state.Container.Succeeded &gt; .shape {fill: #91EA9A;} .node.state.Container.InProgress &gt; .shape {fill :#A9E4F7;} .node.state.Container.Cancelled &gt; .shape {fill: #EEEEEE;} marker {fill: #555555;} .node.anchor,.node.state.NotYetStarted {cursor: default;} .node.state {cursor: pointer;} tspan .label {font-weight: normal;font-size: 12px;text-shadow: none;} </style></svg>