<!DOCTYPE svg PUBLIC "-//W3C//DTD SVG 1.1//EN" "https://www.w3.org/Graphics/SVG/1.1/DTD/svg11.dtd"><svg xmlns="http://www.w3.org/2000/svg" id="sfn-svg" class="sfn-workflow-graph" width="388" height="626">
    
    
<g transform="translate(12,19.61328125)"><g class="nodes"><g class="node-container" transform="translate(214.060546875,18.25)"><g class="node anchor"><circle class="shape" x="-15.86328125" y="-8.25" r="25.86328125"/><text class="label"><tspan xml:space="preserve" text-anchor="middle" alignment-baseline="central">Start</tspan></text></g></g><g class="node-container" transform="translate(214.060546875,571.8540000915527)"><g class="node anchor"><circle class="shape" x="-12.17578125" y="-8.25" r="22.17578125"/><text class="label"><tspan xml:space="preserve" text-anchor="middle" alignment-baseline="central">End</tspan></text></g></g><g class="node-container" transform="translate(214.060546875,79.75)"><g class="node state Task NotYetStarted"><rect class="shape" rx="5" ry="5" x="-48.9921875" y="-18.25" width="97.984375" height="36.5"/><text class="label"><tspan xml:space="preserve" text-anchor="middle" alignment-baseline="central">CreateOrder</tspan></text></g></g><g class="node-container" transform="translate(214.060546875,141.25)"><g class="node state Task NotYetStarted"><rect class="shape" rx="5" ry="5" x="-49.29296875" y="-18.25" width="98.5859375" height="36.5"/><text class="label"><tspan xml:space="preserve" text-anchor="middle" alignment-baseline="central">ReserveItem</tspan></text></g></g><g class="node-container" transform="translate(162.41796875,202.77600002288818)"><g class="node state Task NotYetStarted"><rect class="shape" rx="5" ry="5" x="-61.703125" y="-18.276000022888184" width="123.40625" height="36.55200004577637"/><text class="label"><tspan xml:space="preserve" text-anchor="middle" alignment-baseline="central">ProcessPayment</tspan></text></g></g><g class="node-container" transform="translate(299.25390625,448.85400009155273)"><g class="node state Task NotYetStarted"><rect class="shape" rx="5" ry="5" x="-49.30078125" y="-18.25" width="98.6015625" height="36.5"/><text class="label"><tspan xml:space="preserve" text-anchor="middle" alignment-baseline="central">CancelOrder</tspan></text></g></g><g class="node-container" transform="translate(299.25390625,510.35400009155273)"><g class="node state Task NotYetStarted"><rect class="shape" rx="5" ry="5" x="-63.8046875" y="-18.25" width="127.609375" height="36.5"/><text class="label"><tspan xml:space="preserve" text-anchor="middle" alignment-baseline="central">EmitFailureEvent</tspan></text></g></g><g class="node-container" transform="translate(114.5,264.30200004577637)"><g class="node state Task NotYetStarted"><rect class="shape" rx="5" ry="5" x="-54.05859375" y="-18.25" width="108.1171875" height="36.5"/><text class="label"><tspan xml:space="preserve" text-anchor="middle" alignment-baseline="central">ConfirmOrder</tspan></text></g></g><g class="node-container" transform="translate(247.611328125,387.35400009155273)"><g class="node state Task NotYetStarted"><rect class="shape" rx="5" ry="5" x="-68.28515625" y="-18.25" width="136.5703125" height="36.5"/><text class="label"><tspan xml:space="preserve" text-anchor="middle" alignment-baseline="central">CancelReservation</tspan></text></g></g><g class="node-container" transform="translate(66.58203125,510.35400009155273)"><g class="node state Task NotYetStarted"><rect class="shape" rx="5" ry="5" x="-66.58203125" y="-18.25" width="133.1640625" height="36.5"/><text class="label"><tspan xml:space="preserve" text-anchor="middle" alignment-baseline="central">EmitSuccessEvent</tspan></text></g></g><g class="node-container" transform="translate(199.693359375,325.82800006866455)"><g class="node state Pass NotYetStarted"><rect class="shape" rx="5" ry="5" x="-60.8359375" y="-18.276000022888184" width="121.671875" height="36.55200004577637"/><text class="label"><tspan xml:space="preserve" text-anchor="middle" alignment-baseline="central">RefundPayment</tspan></text></g></g></g><g class="edges"><g class="edge"><path class="path" marker-end="url(#arrowhead142)" d="M214.060546875,98L214.060546875,100.08333333333331C214.060546875,102.16666666666666,214.060546875,106.33333333333331,214.060546875,110.49999999999999C214.060546875,114.66666666666666,214.060546875,118.83333333333333,214.060546875,120.91666666666666L214.060546875,123" style="fill: none;"/><defs><marker id="arrowhead142" viewBox="0 0 10 10" refX="9" refY="5" markerUnits="strokeWidth" markerWidth="8" markerHeight="6" orient="auto"><path d="M 0 0 L 10 5 L 0 10 z"/></marker></defs></g><g class="edge"><path class="path" marker-end="url(#arrowhead143)" d="M214.060546875,44.11328125L214.060546875,44.92773437499999C214.060546875,45.7421875,214.060546875,47.37109375,214.060546875,50.26888020833333C214.060546875,53.166666666666664,214.060546875,57.33333333333333,214.060546875,59.416666666666664L214.060546875,61.5" style="fill: none;"/><defs><marker id="arrowhead143" viewBox="0 0 10 10" refX="9" refY="5" markerUnits="strokeWidth" markerWidth="8" markerHeight="6" orient="auto"><path d="M 0 0 L 10 5 L 0 10 z"/></marker></defs></g><g class="edge"><path class="path" marker-end="url(#arrowhead144)" d="M183.41088668699186,159.5L179.91206703082656,161.58333333333331C176.41324737466124,163.66666666666666,169.41560806233062,167.83333333333331,165.91678840616532,172C162.41796875,176.16666666666666,162.41796875,180.33333333333331,162.41796875,182.41666666666666L162.41796875,184.5" style="fill: none;"/><defs><marker id="arrowhead144" viewBox="0 0 10 10" refX="9" refY="5" markerUnits="strokeWidth" markerWidth="8" markerHeight="6" orient="auto"><path d="M 0 0 L 10 5 L 0 10 z"/></marker></defs></g><g class="edge"><path class="path" marker-end="url(#arrowhead145)" d="M263.353515625,151.48391531391346L279.8232421875,154.90326276159453C296.29296875,158.32261020927564,329.232421875,165.1613051046378,345.7021484375,173.70998588946694C362.171875,182.25866667429605,362.171875,192.5173333485921,362.171875,202.77600002288818C362.171875,213.03466669718424,362.171875,223.2933333714803,362.171875,233.5476667086283C362.171875,243.80200004577634,362.171875,254.05200004577634,362.171875,264.3020000457763C362.171875,274.55200004577637,362.171875,284.80200004577637,362.171875,295.0563333829244C362.171875,305.3106667200724,362.171875,315.56933339436847,362.171875,325.82800006866455C362.171875,336.0866667429606,362.171875,346.34533341725665,362.171875,356.5996667544047C362.171875,366.85400009155273,362.171875,377.10400009155273,362.171875,387.35400009155273C362.171875,397.60400009155273,362.171875,407.85400009155273,357.9091399898374,415.06233342488605C353.6464049796748,422.27066675821936,345.1209349593496,426.43733342488605,340.858199949187,428.52066675821936L336.5954649390244,430.60400009155273" style="fill: none;"/><defs><marker id="arrowhead145" viewBox="0 0 10 10" refX="9" refY="5" markerUnits="strokeWidth" markerWidth="8" markerHeight="6" orient="auto"><path d="M 0 0 L 10 5 L 0 10 z"/></marker></defs></g><g class="edge"><path class="path" marker-end="url(#arrowhead146)" d="M299.25390625,467.10400009155273L299.25390625,469.187333424886C299.25390625,471.27066675821936,299.25390625,475.43733342488605,299.25390625,479.6040000915527C299.25390625,483.77066675821936,299.25390625,487.93733342488605,299.25390625,490.02066675821936L299.25390625,492.10400009155273" style="fill: none;"/><defs><marker id="arrowhead146" viewBox="0 0 10 10" refX="9" refY="5" markerUnits="strokeWidth" markerWidth="8" markerHeight="6" orient="auto"><path d="M 0 0 L 10 5 L 0 10 z"/></marker></defs></g><g class="edge"><path class="path" marker-end="url(#arrowhead147)" d="M133.96239306373607,221.05200004577637L130.7186608864467,223.13533337910968C127.47492870915738,225.21866671244302,120.98746435457869,229.38533337910968,117.74373217728933,233.55200004577634C114.5,237.718666712443,114.5,241.88533337910968,114.49999999999999,243.96866671244302L114.5,246.05200004577637" style="fill: none;"/><defs><marker id="arrowhead147" viewBox="0 0 10 10" refX="9" refY="5" markerUnits="strokeWidth" markerWidth="8" markerHeight="6" orient="auto"><path d="M 0 0 L 10 5 L 0 10 z"/></marker></defs></g><g class="edge"><path class="path" marker-end="url(#arrowhead148)" d="M224.12109375,217.04206890794217L236.0224609375,219.79372409758116C247.923828125,222.54537928722021,271.7265625,228.04868966649826,283.6279296875,235.92534485613731C295.529296875,243.80200004577634,295.529296875,254.05200004577634,295.529296875,264.3020000457763C295.529296875,274.55200004577637,295.529296875,284.80200004577637,295.529296875,295.0563333829244C295.529296875,305.3106667200724,295.529296875,315.56933339436847,295.529296875,325.82800006866455C295.529296875,336.0866667429606,295.529296875,346.34533341725665,292.282822027439,353.55800008773804C289.036347179878,360.77066675821936,282.54339748475604,364.93733342488605,279.2969226371951,367.02066675821936L276.0504477896341,369.10400009155273" style="fill: none;"/><defs><marker id="arrowhead148" viewBox="0 0 10 10" refX="9" refY="5" markerUnits="strokeWidth" markerWidth="8" markerHeight="6" orient="auto"><path d="M 0 0 L 10 5 L 0 10 z"/></marker></defs></g><g class="edge"><path class="path" marker-end="url(#arrowhead149)" d="M86.06088033536585,282.55200004577637L82.81440548780486,284.6353333791097C79.5679306402439,286.718666712443,73.07498094512195,290.8853333791097,69.82850609756096,298.09800004959106C66.58203125,305.3106667200724,66.58203125,315.56933339436847,66.58203124999999,325.82800006866455C66.58203125,336.0866667429606,66.58203125,346.34533341725665,66.58203124999999,356.5996667544047C66.58203125,366.85400009155273,66.58203125,377.10400009155273,66.58203124999999,387.35400009155273C66.58203125,397.60400009155273,66.58203125,407.85400009155273,66.58203124999999,418.10400009155273C66.58203125,428.35400009155273,66.58203125,438.60400009155273,66.58203124999999,448.85400009155273C66.58203125,459.10400009155273,66.58203125,469.35400009155273,66.58203124999999,476.56233342488605C66.58203125,483.77066675821936,66.58203125,487.93733342488605,66.58203124999999,490.02066675821936L66.58203125,492.10400009155273" style="fill: none;"/><defs><marker id="arrowhead149" viewBox="0 0 10 10" refX="9" refY="5" markerUnits="strokeWidth" markerWidth="8" markerHeight="6" orient="auto"><path d="M 0 0 L 10 5 L 0 10 z"/></marker></defs></g><g class="edge"><path class="path" marker-end="url(#arrowhead150)" d="M165.0619124745935,282.55200004577637L170.8338202913279,284.6353333791097C176.60572810806232,286.718666712443,188.14954374153115,290.8853333791097,193.92145155826557,295.05200004577637C199.693359375,299.218666712443,199.693359375,303.3853333791097,199.693359375,305.46866671244305L199.693359375,307.55200004577637" style="fill: none;"/><defs><marker id="arrowhead150" viewBox="0 0 10 10" refX="9" refY="5" markerUnits="strokeWidth" markerWidth="8" markerHeight="6" orient="auto"><path d="M 0 0 L 10 5 L 0 10 z"/></marker></defs></g><g class="edge"><path class="path" marker-end="url(#arrowhead151)" d="M247.611328125,405.60400009155273L247.611328125,407.687333424886C247.611328125,409.77066675821936,247.611328125,413.93733342488605,251.11014778116532,418.1040000915527C254.60896743733062,422.27066675821936,261.60660674966124,426.43733342488605,265.10542640582656,428.52066675821936L268.6042460619919,430.60400009155273" style="fill: none;"/><defs><marker id="arrowhead151" viewBox="0 0 10 10" refX="9" refY="5" markerUnits="strokeWidth" markerWidth="8" markerHeight="6" orient="auto"><path d="M 0 0 L 10 5 L 0 10 z"/></marker></defs></g><g class="edge"><path class="path" marker-end="url(#arrowhead152)" d="M199.693359375,344.10400009155273L199.693359375,346.18733342488605C199.693359375,348.27066675821936,199.693359375,352.43733342488605,202.939834222561,356.60400009155273C206.18630907012195,360.77066675821936,212.6792587652439,364.93733342488605,215.9257336128049,367.02066675821936L219.17220846036585,369.10400009155273" style="fill: none;"/><defs><marker id="arrowhead152" viewBox="0 0 10 10" refX="9" refY="5" markerUnits="strokeWidth" markerWidth="8" markerHeight="6" orient="auto"><path d="M 0 0 L 10 5 L 0 10 z"/></marker></defs></g><g class="edge"><path class="path" marker-end="url(#arrowhead153)" d="M66.58203125,528.6040000915527L66.58203124999999,530.687333424886C66.58203125,532.7706667582194,66.58203125,536.937333424886,87.54363194156934,543.3912641875069C108.5052326331387,549.8451949501277,150.4284340162774,558.5863898087026,171.39003470784678,562.9569872379901L192.35163539941615,567.3275846672776" style="fill: none;"/><defs><marker id="arrowhead153" viewBox="0 0 10 10" refX="9" refY="5" markerUnits="strokeWidth" markerWidth="8" markerHeight="6" orient="auto"><path d="M 0 0 L 10 5 L 0 10 z"/></marker></defs></g><g class="edge"><path class="path" marker-end="url(#arrowhead154)" d="M299.25390625,528.6040000915527L299.25390625,530.687333424886C299.25390625,532.7706667582194,299.25390625,536.937333424886,288.531451908086,542.8908683024797C277.808997566172,548.8444031800734,256.36408888234405,556.5848062685942,245.64163454043006,560.4550078128545L234.9191801985161,564.325209357115" style="fill: none;"/><defs><marker id="arrowhead154" viewBox="0 0 10 10" refX="9" refY="5" markerUnits="strokeWidth" markerWidth="8" markerHeight="6" orient="auto"><path d="M 0 0 L 10 5 L 0 10 z"/></marker></defs></g></g></g><style xmlns="http://www.w3.org/1999/xhtml">.node &gt; .shape {stroke: #555555;stroke-width: 0.6px;fill: #FFFFFF;} path {stroke: #555;background-color: #555;stroke-width: 1px;} .node.state.NotYetStarted &gt; .shape,.node.state.Container &gt; .shape {stroke-dasharray: 5 2;} .node.state.Failed &gt; .shape,rect.legend.Failed {fill: #DE322F;} .node.state.CaughtError &gt; .shape,rect.legend.CaughtError {fill: #FFA500;} .node.state.Succeeded &gt; .shape,rect.legend.Succeeded {fill: #2BD62E;} .node.state.InProgress &gt; .shape,rect.legend.InProgress {fill: #53c9ed;} .node.state.Cancelled &gt; .shape,rect.legend.Cancelled {fill: #dddddd;} .node.anchor &gt; .shape {fill: #FFDA75;} .node.state.hovered:not(.selected):not(.NotYetStarted) &gt; .shape,.node.selected &gt; .shape {stroke: #555555;stroke-width: 2px;} .node.state.Container.Failed &gt; .shape {fill: #EE9592;} .node.state.Container.CaughtError &gt; .shape {fill: #FFD27F;} .node.state.Container.Succeeded &gt; .shape {fill: #91EA9A;} .node.state.Container.InProgress &gt; .shape {fill :#A9E4F7;} .node.state.Container.Cancelled &gt; .shape {fill: #EEEEEE;} marker {fill: #555555;} .node.anchor,.node.state.NotYetStarted {cursor: default;} .node.state {cursor: pointer;} tspan .label {font-weight: normal;font-size: 12px;text-shadow: none;} </style></svg>